PathFileType	4	(X/Y/Z)	D:\TRACE\v60_Jaco2_6-2-23\JustBodyDRS_Motion1_5-platform.trc
DataRate	CameraRate	NumFrames	NumMarkers	Units	OrigDataRate	OrigDataStartFrame	OrigNumFrames
100.00	100.00	      73	5	mm	100.00	2514	      6702
Frame#	Time	Left_Front			Right_Front			Left_Aft			Right_Aft			Post			
		X1	Y1	Z1	X2	Y2	Z2	X3	Y3	Z3	X4	Y4	Z4	X5	Y5	Z5	

2514	25.130	-752.21613	30.21721	-633.87903	817.60907	31.77490	-639.17090	-660.51367	-7.75601	500.65839	781.56818	-8.73836	509.91254	34.03598	1339.28125	-913.91376	
2515	25.140	-752.59198	30.02022	-633.80194	817.15710	31.44114	-639.24115	-660.80261	-7.48307	500.67596	780.83325	-8.71599	509.86716	33.58315	1338.84363	-915.33221	
2516	25.150	-753.08527	29.78801	-633.84442	816.82123	31.15759	-639.25104	-661.19470	-7.23308	500.55630	780.53058	-8.33975	509.77011	33.03528	1338.38733	-916.14648	
2517	25.160	-753.50842	29.30294	-633.83722	816.37744	30.65211	-639.46307	-661.55646	-6.98246	500.51566	780.54871	-8.01689	509.71582	32.83255	1337.84399	-917.27362	
2518	25.170	-753.88947	28.84090	-634.13470	816.03796	30.29177	-639.58759	-661.75317	-6.79050	500.48077	780.32172	-7.66980	509.63266	32.27974	1337.19800	-918.17255	
2519	25.180	-754.25238	28.57098	-634.42279	815.73938	29.91369	-639.56934	-662.08191	-6.54795	500.40906	779.86267	-7.35170	509.61392	31.88230	1336.90076	-918.56140	
2520	25.190	-754.79840	28.25168	-634.62268	815.21301	29.51818	-639.54926	-662.64362	-6.11480	500.30307	779.37518	-7.13385	509.50848	31.32152	1336.30090	-919.30396	
2521	25.200	-755.31915	27.82472	-634.47119	814.70160	29.07481	-639.79346	-663.18127	-5.74417	500.13821	778.83777	-6.91137	509.35129	30.92693	1335.52563	-919.82062	
2522	25.210	-755.56348	27.43130	-634.59821	814.31702	28.87899	-639.93542	-663.57813	-5.47595	500.08871	778.35046	-6.56768	509.22748	30.81402	1334.97144	-920.33087	
2523	25.220	-755.86719	26.89687	-634.79205	813.82977	28.49167	-640.17175	-663.90271	-5.28701	500.09500	777.95917	-6.19855	509.20560	30.48464	1334.37195	-921.26477	
2524	25.230	-755.90808	26.26109	-634.64624	813.48615	28.02529	-640.19592	-664.25275	-5.14770	499.98486	777.72357	-5.72832	509.23303	29.75232	1333.89941	-921.87555	
2525	25.240	-756.72693	25.86166	-634.91296	812.86755	27.47866	-640.31036	-664.56476	-5.04449	499.80469	777.30267	-5.43820	509.06052	29.06039	1333.23108	-923.36365	
2526	25.250	-757.32709	25.71870	-634.91022	812.49109	27.05101	-640.36945	-665.08380	-4.75148	499.59073	776.51947	-5.20755	509.03635	28.65293	1332.76160	-924.43988	
2527	25.260	-757.97925	25.70574	-634.85803	812.06329	26.70282	-640.42377	-665.53979	-4.17374	499.63498	775.38733	-5.57945	508.41806	28.15286	1332.14795	-925.85748	
2528	25.270	-758.49182	25.11880	-635.17352	811.62799	26.36908	-640.46387	-666.22729	-4.00291	499.55072	775.32544	-4.92885	508.54745	27.56844	1331.32263	-927.25250	
2529	25.280	-759.00909	24.38419	-635.40430	810.98669	25.60472	-640.63458	-666.59595	-3.86220	499.60440	774.76459	-4.88499	508.23535	27.18818	1330.99158	-928.04999	
2530	25.290	-759.41101	23.93963	-635.63977	810.54572	25.04586	-640.66248	-666.89764	-3.84958	499.44095	774.89166	-3.85739	508.72891	26.96914	1330.36523	-929.07501	
2531	25.300	-759.72577	23.64801	-635.55383	809.98395	24.80394	-640.84656	-667.35944	-3.56045	499.29187	774.14404	-3.76295	508.44022	26.22855	1329.58789	-929.99628	
2532	25.310	-760.45197	23.42084	-635.55750	809.41907	24.45612	-641.08398	-667.99121	-3.24072	499.33865	773.28473	-3.58063	508.30310	26.00460	1329.11658	-930.49957	
2533	25.320	-761.09808	23.00127	-635.71118	808.96429	24.14199	-641.04688	-668.51727	-3.03888	499.63858	772.77838	-2.98634	508.30954	24.87892	1328.55042	-930.97198	
2534	25.330	-761.59991	22.28642	-635.69373	808.41095	23.36807	-641.07159	-669.11292	-2.60523	499.20062	772.47040	-2.79729	508.13391	24.02204	1327.69299	-931.81183	
2535	25.340	-762.43439	21.36425	-635.81567	807.59290	22.96384	-641.27539	-670.34161	-1.33713	498.90924	771.70825	-2.27733	508.13342	23.78877	1327.16260	-932.34576	
2536	25.350	-762.87152	21.04964	-636.33936	806.97852	22.59041	-641.41547	-670.93066	-1.16293	498.90643	770.84119	-2.21459	507.97952	23.29859	1326.34656	-933.40363	
2537	25.360	-763.48444	20.89996	-636.40363	806.41718	22.00008	-641.49548	-671.55103	-0.90752	498.76682	770.40485	-1.96677	507.92249	22.75561	1325.62903	-934.44659	
2538	25.370	-763.87128	20.52516	-636.09937	805.90540	21.70301	-641.70532	-672.87854	-0.13533	498.82129	769.94934	-1.37080	507.85004	22.13420	1325.09570	-935.94617	
2539	25.380	-764.65448	20.21814	-636.44843	805.01703	21.30073	-641.93170	-673.21613	0.19873	498.57336	769.40979	-1.15051	507.63818	21.62943	1324.43018	-937.39026	
2540	25.390	-765.35327	19.52627	-636.57269	804.56036	20.83678	-641.89893	-673.78418	0.52840	498.45770	768.52612	-0.85297	507.48074	20.81633	1323.87830	-938.90527	
2541	25.400	-766.08264	18.84306	-636.67133	803.81488	20.18899	-641.88068	-674.41718	0.72459	498.44598	767.84808	-0.45065	507.44305	20.16603	1323.07263	-940.00140	
2542	25.410	-766.93372	18.40819	-636.75201	803.01044	19.60725	-642.18445	-675.23328	0.91711	498.38086	767.39215	-0.03295	507.40662	19.26839	1322.34290	-941.29401	
2543	25.420	-767.49323	18.18057	-636.90271	802.58484	19.21251	-642.16187	-675.73486	1.07830	498.26538	766.62854	0.37391	507.32178	19.03747	1321.51599	-942.28363	
2544	25.430	-768.22717	17.64242	-636.98004	801.84302	19.02808	-642.44495	-676.50214	1.47111	498.18716	765.68103	0.44580	507.25815	18.11501	1321.13574	-943.38995	
2545	25.440	-768.76978	17.13957	-637.05487	801.16400	18.59261	-642.55090	-677.37555	1.99911	498.03183	765.20636	0.98039	507.09012	17.61349	1320.42236	-943.78058	
2546	25.450	-769.31793	16.80189	-637.37286	800.28345	18.01105	-642.65662	-678.12402	2.23920	498.03650	764.93719	1.39132	507.04037	16.41730	1319.60242	-944.67822	
2547	25.460	-770.50635	16.24206	-637.38489	799.62433	17.44354	-642.66693	-678.47589	2.39642	497.94205	763.28735	1.55062	506.90851	15.55285	1319.04785	-945.18854	
2548	25.470	-771.25879	15.87796	-637.71552	798.78259	16.97737	-642.93488	-679.26184	2.70658	497.79315	762.80267	1.97806	506.84744	15.19414	1318.04651	-945.76843	
2549	25.480	-771.86151	15.33849	-637.61353	797.69958	16.34839	-643.43256	-680.18085	3.20204	497.56079	762.28320	2.32287	506.76822	14.29568	1317.59839	-946.92456	
2550	25.490	-772.50592	14.71776	-637.58966	797.21124	15.96725	-643.06940	-681.04132	3.60459	497.46671	761.28943	2.65874	506.63928	13.88747	1316.94897	-947.75867	
2551	25.500	-773.21228	14.15438	-637.80615	796.70831	15.59602	-642.95349	-681.14685	3.53512	497.59552	760.66290	2.95936	506.51959	12.67338	1316.19373	-949.17999	
2552	25.510	-774.19379	13.62720	-637.67932	795.79132	15.01098	-643.22656	-682.16815	3.91404	497.35153	760.03253	3.35016	506.37128	11.92010	1315.57825	-950.97229	
2553	25.520	-774.97766	13.21744	-638.09045	794.64954	14.39513	-643.78882	-683.33447	4.43254	497.16513	759.18951	3.79592	506.42993	11.09789	1314.59729	-952.03137	
2554	25.530	-775.72662	12.86943	-638.30225	793.89954	13.96873	-643.65375	-683.95789	4.63543	497.01968	757.78882	3.98376	506.20206	10.36220	1314.01611	-953.76141	
2555	25.540	-776.48901	12.29790	-638.35144	793.13263	13.48887	-643.84033	-684.69928	4.94920	496.86160	757.50940	4.43816	506.27292	9.61506	1313.34436	-954.93011	
2556	25.550	-777.17126	12.07584	-638.41937	792.33887	13.09495	-643.84674	-685.46753	5.23784	496.78067	756.88879	4.87639	506.02844	9.06110	1312.64087	-955.86566	
2557	25.560	-778.12085	11.51479	-638.36340	791.46149	12.54592	-643.99475	-686.67999	6.19099	496.39285	755.87592	5.01464	505.92914	8.16790	1311.98730	-957.10992	
2558	25.570	-779.14050	10.79267	-638.62238	790.70520	12.05901	-644.01855	-687.17468	6.33153	496.37863	755.15063	5.55117	505.78772	7.06315	1311.21265	-957.74731	
2559	25.580	-779.87793	10.40654	-638.83826	789.97955	11.55010	-644.28772	-688.12549	6.41378	496.26868	754.57410	5.84350	505.72723	6.29932	1310.42456	-958.52936	
2560	25.590	-780.42389	9.83805	-638.64764	789.04333	11.10357	-644.40179	-689.00482	6.64685	496.19443	753.05920	6.07355	505.55081	5.39022	1309.80908	-959.14490	
2561	25.600	-781.49597	9.51966	-638.88971	788.11346	10.72590	-644.41449	-689.67810	7.12943	496.10431	752.55103	6.34642	505.46396	4.93396	1308.98816	-959.59406	
2562	25.610	-782.64948	9.30550	-638.96436	787.21698	10.28696	-644.41083	-690.58185	7.63732	496.04337	751.73059	6.93832	505.36798	3.25341	1308.64734	-960.49854	
2563	25.620	-783.51410	8.68259	-639.19727	786.38257	9.98703	-644.69678	-691.70892	7.88257	495.99182	750.66724	7.04283	505.07782	2.68827	1308.03210	-961.51752	
2564	25.630	-784.16504	8.32650	-639.40295	785.27405	9.86514	-645.00031	-692.26398	8.11158	495.81192	749.84753	7.63140	505.04199	1.98651	1307.03137	-962.74701	
2565	25.640	-784.71625	7.89320	-639.63416	784.54883	9.37351	-644.85016	-693.16443	8.50964	495.81891	748.89307	7.59647	504.94720	1.07058	1306.22607	-963.84027	
2566	25.650	-785.92151	6.78693	-639.40485	783.88678	8.08768	-644.98389	-694.41840	8.90908	495.63028	747.80591	8.02352	504.78418	0.05625	1305.47925	-965.13995	
2567	25.660	-787.13550	6.25446	-639.56409	783.00659	7.80779	-644.97339	-695.19855	9.34398	495.51190	747.33441	8.60217	504.66922	-1.01399	1304.87952	-966.65198	
2568	25.670	-788.00037	5.93726	-639.86188	781.96783	7.61313	-645.07184	-695.95087	9.67309	495.34885	746.67578	9.03816	504.57434	-1.61980	1303.95190	-968.00623	
2569	25.680	-788.71112	5.54069	-639.98468	781.28210	7.40824	-645.07080	-697.06354	10.00050	495.27826	745.08954	9.07520	504.46725	-2.54644	1303.41492	-969.82904	
2570	25.690	-789.51709	5.03876	-639.68475	780.22516	6.59186	-645.33887	-697.75439	10.11498	495.20236	744.50433	9.45297	504.54440	-3.60478	1302.85938	-971.00763	
2571	25.700	-790.61615	4.76281	-639.97723	779.26563	6.21824	-645.36615	-698.83331	10.54939	495.06741	743.31500	9.75226	504.31412	-4.25160	1302.06531	-972.25952	
2572	25.710	-791.67627	4.29771	-640.15436	778.24670	5.82053	-645.47504	-699.87561	10.79793	494.96011	742.63312	10.06907	504.26959	-5.46577	1301.54846	-973.69788	
2573	25.720	-792.42413	3.93500	-640.27844	777.35315	5.28549	-645.64435	-700.56360	10.99880	494.89807	741.89886	10.44301	504.14246	-6.16688	1301.02722	-974.06726	
2574	25.730	-793.34717	3.47222	-640.04596	776.49988	5.00465	-645.72968	-701.25281	10.69866	494.91342	740.32043	10.39727	504.08417	-7.21632	1300.28235	-974.87488	
2575	25.740	-794.38629	2.95244	-640.07996	775.42413	4.64860	-645.71118	-702.56097	11.67630	494.58975	739.80176	10.93537	504.10806	-8.18660	1299.69043	-975.57001	
2576	25.750	-795.35046	2.56539	-640.34894	774.66272	4.16507	-645.86444	-702.93121	11.16002	494.74203	739.05762	11.34011	503.88727	-9.06607	1299.09741	-975.74725	
2577	25.760	-796.23132	2.17609	-640.79388	773.73254	3.55574	-645.91907	-703.83527	11.40713	494.73636	737.74188	11.59408	503.75064	-10.18661	1298.17615	-976.36975	
2578	25.770	-797.14038	1.59456	-640.56763	772.66931	3.19585	-646.08270	-704.87927	11.73934	494.61237	736.93469	11.64877	504.07111	-11.24240	1297.82422	-976.40546	
2579	25.780	-798.17957	1.29225	-640.59375	771.69684	2.69259	-645.97571	-705.72144	11.99426	494.56442	735.46582	12.13537	504.26288	-12.36345	1297.12500	-976.74475	
2580	25.790	-799.16724	0.79906	-640.70630	771.05066	2.22490	-646.12036	-706.71753	12.38317	494.36392	735.06177	12.52868	503.53360	-13.13533	1296.53088	-977.55493	
2581	25.800	-800.06683	0.42584	-641.26123	769.97095	1.94649	-646.31213	-707.67383	12.70995	494.11749	734.18329	13.01604	503.40082	-14.00711	1295.74780	-978.47522	
2582	25.810	-800.73529	0.13146	-641.20789	768.79987	1.59370	-646.27240	-708.55554	13.10992	493.98145	732.57196	12.94954	503.91519	-14.75658	1294.94067	-980.00854	
2583	25.820	-802.11786	-0.32278	-640.99664	767.97913	1.11626	-646.39557	-709.59082	13.38952	493.76559	732.25470	13.51669	503.33380	-16.18181	1294.55725	-981.65735	
2584	25.830	-803.09357	-0.70742	-641.19128	766.90320	0.61911	-646.55988	-710.80878	13.76064	493.76477	730.89142	13.58527	503.13611	-16.88163	1293.92822	-983.29858	
2585	25.840	-804.08557	-1.47637	-641.40503	766.01416	0.25967	-646.46497	-711.55231	13.79494	493.77042	730.06525	13.88059	503.04251	-17.60898	1293.13708	-984.66742	
2586	25.850	-804.83771	-1.93473	-641.35773	765.02948	-0.14294	-646.46851	-713.25824	15.11227	493.55719	729.48016	14.31327	502.96396	-18.59146	1292.69482	-985.95099	
